<svg xmlns="http://www.w3.org/2000/svg" version="1.1" xmlns:xlink="http://www.w3.org/1999/xlink" viewBox="0 0 200 200"><rect width="200" height="200" fill="url('#gradient')"></rect><defs><linearGradient id="gradient" gradientTransform="rotate(360 0.5 0.5)"><stop offset="0%" stop-color="#8e1616"></stop><stop offset="100%" stop-color="#d84040"></stop></linearGradient></defs><g><g fill="#eeeeee" transform="matrix(3.807817451933235,0,0,3.807817451933235,7.92240183872272,134.53916905715656)" stroke="#1d1616" stroke-width="0.55"><path d="M9.89-8.57L9.89-6.03L4.50-6.03L4.50-2.64L10.87-2.64L10.87 0L1.07 0L1.07-14.22L10.89-14.22L10.89-11.57L4.50-11.57L4.50-8.57L9.89-8.57ZM12.27-14.22L16.77-14.22L19.94-4.33L23.11-14.22L27.62-14.22L27.62 0L24.18 0L24.18-3.32L24.51-10.12L21.07 0L18.81 0L15.36-10.13L15.69-3.32L15.69 0L12.27 0L12.27-14.22ZM33.45-14.22L33.45 0L30.03 0L30.03-14.22L33.45-14.22ZM30.10-16.71L30.10-16.71Q30.10-17.34 30.56-17.74Q31.02-18.14 31.72-18.14L31.72-18.14Q32.41-18.14 32.87-17.74Q33.33-17.34 33.33-16.71L33.33-16.71Q33.33-16.08 32.87-15.68Q32.41-15.28 31.72-15.28L31.72-15.28Q31.02-15.28 30.56-15.68Q30.10-16.08 30.10-16.71ZM43.62 0L41.11-5.02L39.26-5.02L39.26 0L35.83 0L35.83-14.22L41.43-14.22Q43.96-14.22 45.38-13.10Q46.81-11.97 46.81-9.92L46.81-9.92Q46.81-8.44 46.21-7.46Q45.61-6.48 44.33-5.88L44.33-5.88L47.29-0.15L47.29 0L43.62 0ZM39.26-11.57L39.26-7.67L41.43-7.67Q42.40-7.67 42.90-8.18Q43.39-8.69 43.39-9.61Q43.39-10.53 42.89-11.05Q42.39-11.57 41.43-11.57L41.43-11.57L39.26-11.57Z"></path></g></g></svg>